<svg width="890" height="825" viewBox="0 0 890 825" fill="none" xmlns="http://www.w3.org/2000/svg">
<path d="M539 36C175.55 103.557 56.3003 64.7424 0 0V82.924V176L890 163.974V52.5C777.417 78.5156 698.518 21.3224 539 36Z" fill="#34899E" fill-opacity="0.29"/>
<path d="M539 36C175.55 103.557 56.3003 64.7424 0 0V82.924V176L890 163.974V52.5C777.417 78.5156 698.518 21.3224 539 36Z" fill="black" fill-opacity="0.2"/>
<path d="M535.33 74.8026C177.754 142.227 56.3904 103.115 1 38.5V150L738 133L676 78.5C565.237 104.465 692.269 60.1538 535.33 74.8026Z" fill="#34899E" fill-opacity="0.29"/>
<path d="M535.33 74.8026C177.754 142.227 56.3904 103.115 1 38.5V150L738 133L676 78.5C565.237 104.465 692.269 60.1538 535.33 74.8026Z" fill="black" fill-opacity="0.2"/>
<path d="M192.5 63.5C602.166 -4.8994 759.671 11.2616 890 33.5V825H0.13103L0.130612 111.5C0.130612 111.5 -8.29657 101.823 192.5 63.5Z" fill="#34899E"/>
<path d="M192.5 63.5C602.166 -4.8994 759.671 11.2616 890 33.5V825H0.13103L0.130612 111.5C0.130612 111.5 -8.29657 101.823 192.5 63.5Z" fill="black" fill-opacity="0.2"/>
<ellipse cx="176" cy="118.5" rx="26" ry="26.5" fill="white" fill-opacity="0.54"/>
<path d="M0.5 219.5C18.7254 219.5 35.5001 202.955 35.5001 182.349C35.5001 161.744 20.7255 145.04 2.50009 145.04C1.54106 145.04 1.43827 144.909 0.5 145" stroke="white"/>
</svg>
