<svg width="982" height="866" viewBox="0 0 982 866" fill="none" xmlns="http://www.w3.org/2000/svg">
<path d="M981.5 51C910.09 137.939 656.626 58.2079 406.5 38.5L773.694 205.007L981.5 221V51Z" fill="#134A57"/>
<path d="M621 86.8051C128.149 -39.1801 0 9.08198 0 9.08198V866H982V146.398C916.424 168.126 755.474 124.02 621 86.8051Z" fill="#1A526B"/>
<path d="M621 86.8051C128.149 -39.1801 0 9.08198 0 9.08198V866H982V146.398C916.424 168.126 755.474 124.02 621 86.8051Z" fill="black" fill-opacity="0.2"/>
<path d="M621 86.8051C128.149 -39.1801 0 9.08198 0 9.08198V866H982V146.398C916.424 168.126 755.474 124.02 621 86.8051Z" fill="black" fill-opacity="0.2"/>
</svg>
