<svg width="893" height="1208" viewBox="0 0 893 1208" fill="none" xmlns="http://www.w3.org/2000/svg">
<path d="M425 81.5001C369.5 117.873 303.947 155.942 195.5 154.137L163 292.375L892 256.355V154.137C892 -40.9999 920 70.8726 425 81.5001Z" fill="#66C8CB" fill-opacity="0.35"/>
<path d="M414.023 37.8418C175.492 -23.2506 59.7744 2.0908 0 27.5459V1208H892V83.0531C743.5 108.5 585.388 92.7537 414.023 37.8418Z" fill="#66C8CB"/>
<path d="M677 140.5C558.662 88.9263 544.107 83.6365 467 56L550.5 71.5001C687.5 100 777.5 100 892 83.5L892 131.304C819.5 162 737.417 166.831 677 140.5Z" fill="#81D4D6"/>
</svg>
